<svg width="323" height="56" viewBox="0 0 323 56" fill="none" xmlns="http://www.w3.org/2000/svg">
<path d="M37.4 1.62V45H29.3V26.04H8.93V45H0.83V1.62H8.93V20.28H29.3V1.62H37.4ZM58.573 13.74C60.853 13.74 62.923 14.11 64.783 14.85C66.663 15.59 68.263 16.64 69.583 18C70.923 19.36 71.953 21.02 72.673 22.98C73.393 24.94 73.753 27.13 73.753 29.55C73.753 31.99 73.393 34.19 72.673 36.15C71.953 38.11 70.923 39.78 69.583 41.16C68.263 42.54 66.663 43.6 64.783 44.34C62.923 45.08 60.853 45.45 58.573 45.45C56.273 45.45 54.183 45.08 52.303 44.34C50.423 43.6 48.813 42.54 47.473 41.16C46.153 39.78 45.123 38.11 44.383 36.15C43.663 34.19 43.303 31.99 43.303 29.55C43.303 27.13 43.663 24.94 44.383 22.98C45.123 21.02 46.153 19.36 47.473 18C48.813 16.64 50.423 15.59 52.303 14.85C54.183 14.11 56.273 13.74 58.573 13.74ZM58.573 39.75C61.133 39.75 63.023 38.89 64.243 37.17C65.483 35.45 66.103 32.93 66.103 29.61C66.103 26.29 65.483 23.76 64.243 22.02C63.023 20.28 61.133 19.41 58.573 19.41C55.973 19.41 54.043 20.29 52.783 22.05C51.543 23.79 50.923 26.31 50.923 29.61C50.923 32.91 51.543 35.43 52.783 37.17C54.043 38.89 55.973 39.75 58.573 39.75ZM86.3361 18C86.9561 17.38 87.6061 16.81 88.2861 16.29C88.9861 15.75 89.7161 15.3 90.4761 14.94C91.2561 14.56 92.0861 14.27 92.9661 14.07C93.8461 13.85 94.8061 13.74 95.8461 13.74C97.5261 13.74 99.0161 14.03 100.316 14.61C101.616 15.17 102.696 15.97 103.556 17.01C104.436 18.03 105.096 19.26 105.536 20.7C105.996 22.12 106.226 23.69 106.226 25.41V45H98.8161V25.41C98.8161 23.53 98.3861 22.08 97.5261 21.06C96.6661 20.02 95.3561 19.5 93.5961 19.5C92.3161 19.5 91.1161 19.79 89.9961 20.37C88.8761 20.95 87.8161 21.74 86.8161 22.74V45H79.4061V14.22H83.9361C84.8961 14.22 85.5261 14.67 85.8261 15.57L86.3361 18ZM133.103 26.07C133.103 25.11 132.963 24.21 132.683 23.37C132.423 22.51 132.023 21.76 131.483 21.12C130.943 20.48 130.253 19.98 129.413 19.62C128.593 19.24 127.633 19.05 126.533 19.05C124.393 19.05 122.703 19.66 121.463 20.88C120.243 22.1 119.463 23.83 119.123 26.07H133.103ZM118.973 30.54C119.093 32.12 119.373 33.49 119.813 34.65C120.253 35.79 120.833 36.74 121.553 37.5C122.273 38.24 123.123 38.8 124.103 39.18C125.103 39.54 126.203 39.72 127.403 39.72C128.603 39.72 129.633 39.58 130.493 39.3C131.373 39.02 132.133 38.71 132.773 38.37C133.433 38.03 134.003 37.72 134.483 37.44C134.983 37.16 135.463 37.02 135.923 37.02C136.543 37.02 137.003 37.25 137.303 37.71L139.433 40.41C138.613 41.37 137.693 42.18 136.673 42.84C135.653 43.48 134.583 44 133.463 44.4C132.363 44.78 131.233 45.05 130.073 45.21C128.933 45.37 127.823 45.45 126.743 45.45C124.603 45.45 122.613 45.1 120.773 44.4C118.933 43.68 117.333 42.63 115.973 41.25C114.613 39.85 113.543 38.13 112.763 36.09C111.983 34.03 111.593 31.65 111.593 28.95C111.593 26.85 111.933 24.88 112.613 23.04C113.293 21.18 114.263 19.57 115.523 18.21C116.803 16.83 118.353 15.74 120.173 14.94C122.013 14.14 124.083 13.74 126.383 13.74C128.323 13.74 130.113 14.05 131.753 14.67C133.393 15.29 134.803 16.2 135.983 17.4C137.163 18.58 138.083 20.04 138.743 21.78C139.423 23.5 139.763 25.47 139.763 27.69C139.763 28.81 139.643 29.57 139.403 29.97C139.163 30.35 138.703 30.54 138.023 30.54H118.973ZM172.405 14.22L155.635 53.46C155.415 53.98 155.125 54.37 154.765 54.63C154.425 54.91 153.895 55.05 153.175 55.05H147.655L153.415 42.69L140.965 14.22H147.475C148.055 14.22 148.505 14.36 148.825 14.64C149.165 14.92 149.415 15.24 149.575 15.6L156.115 31.56C156.335 32.1 156.515 32.64 156.655 33.18C156.815 33.72 156.965 34.27 157.105 34.83C157.285 34.27 157.465 33.72 157.645 33.18C157.825 32.62 158.025 32.07 158.245 31.53L164.425 15.6C164.585 15.2 164.845 14.87 165.205 14.61C165.585 14.35 166.005 14.22 166.465 14.22H172.405ZM172.838 40.92C172.838 40.3 172.948 39.71 173.168 39.15C173.408 38.59 173.728 38.11 174.128 37.71C174.528 37.31 175.008 36.99 175.568 36.75C176.128 36.51 176.728 36.39 177.368 36.39C178.008 36.39 178.598 36.51 179.138 36.75C179.698 36.99 180.178 37.31 180.578 37.71C180.998 38.11 181.328 38.59 181.568 39.15C181.808 39.71 181.928 40.3 181.928 40.92C181.928 41.56 181.808 42.16 181.568 42.72C181.328 43.26 180.998 43.73 180.578 44.13C180.178 44.53 179.698 44.84 179.138 45.06C178.598 45.3 178.008 45.42 177.368 45.42C176.728 45.42 176.128 45.3 175.568 45.06C175.008 44.84 174.528 44.53 174.128 44.13C173.728 43.73 173.408 43.26 173.168 42.72C172.948 42.16 172.838 41.56 172.838 40.92ZM223.914 23.25V40.8C221.714 42.42 219.364 43.61 216.864 44.37C214.384 45.11 211.724 45.48 208.884 45.48C205.344 45.48 202.134 44.93 199.254 43.83C196.394 42.73 193.944 41.2 191.904 39.24C189.884 37.28 188.324 34.94 187.224 32.22C186.124 29.5 185.574 26.53 185.574 23.31C185.574 20.05 186.104 17.06 187.164 14.34C188.224 11.62 189.724 9.28 191.664 7.32C193.624 5.36 195.994 3.84 198.774 2.76C201.554 1.68 204.674 1.14 208.134 1.14C209.894 1.14 211.534 1.28 213.054 1.56C214.594 1.84 216.014 2.23 217.314 2.73C218.634 3.21 219.834 3.8 220.914 4.5C221.994 5.2 222.984 5.97 223.884 6.81L221.574 10.47C221.214 11.05 220.744 11.41 220.164 11.55C219.584 11.67 218.954 11.52 218.274 11.1C217.614 10.72 216.954 10.34 216.294 9.96C215.634 9.58 214.894 9.25 214.074 8.97C213.274 8.69 212.364 8.46 211.344 8.28C210.344 8.1 209.184 8.01 207.864 8.01C205.724 8.01 203.784 8.37 202.044 9.09C200.324 9.81 198.854 10.84 197.634 12.18C196.414 13.52 195.474 15.13 194.814 17.01C194.154 18.89 193.824 20.99 193.824 23.31C193.824 25.79 194.174 28.01 194.874 29.97C195.594 31.91 196.594 33.56 197.874 34.92C199.174 36.26 200.734 37.29 202.554 38.01C204.374 38.71 206.404 39.06 208.644 39.06C210.244 39.06 211.674 38.89 212.934 38.55C214.194 38.21 215.424 37.75 216.624 37.17V29.31H211.164C210.644 29.31 210.234 29.17 209.934 28.89C209.654 28.59 209.514 28.23 209.514 27.81V23.25H223.914ZM237.902 0.419998V45H230.492V0.419998H237.902ZM261.545 31.86C259.405 31.96 257.605 32.15 256.145 32.43C254.685 32.69 253.515 33.03 252.635 33.45C251.755 33.87 251.125 34.36 250.745 34.92C250.365 35.48 250.175 36.09 250.175 36.75C250.175 38.05 250.555 38.98 251.315 39.54C252.095 40.1 253.105 40.38 254.345 40.38C255.865 40.38 257.175 40.11 258.275 39.57C259.395 39.01 260.485 38.17 261.545 37.05V31.86ZM244.565 18.51C248.105 15.27 252.365 13.65 257.345 13.65C259.145 13.65 260.755 13.95 262.175 14.55C263.595 15.13 264.795 15.95 265.775 17.01C266.755 18.05 267.495 19.3 267.995 20.76C268.515 22.22 268.775 23.82 268.775 25.56V45H265.415C264.715 45 264.175 44.9 263.795 44.7C263.415 44.48 263.115 44.05 262.895 43.41L262.235 41.19C261.455 41.89 260.695 42.51 259.955 43.05C259.215 43.57 258.445 44.01 257.645 44.37C256.845 44.73 255.985 45 255.065 45.18C254.165 45.38 253.165 45.48 252.065 45.48C250.765 45.48 249.565 45.31 248.465 44.97C247.365 44.61 246.415 44.08 245.615 43.38C244.815 42.68 244.195 41.81 243.755 40.77C243.315 39.73 243.095 38.52 243.095 37.14C243.095 36.36 243.225 35.59 243.485 34.83C243.745 34.05 244.165 33.31 244.745 32.61C245.345 31.91 246.115 31.25 247.055 30.63C247.995 30.01 249.145 29.47 250.505 29.01C251.885 28.55 253.485 28.18 255.305 27.9C257.125 27.6 259.205 27.42 261.545 27.36V25.56C261.545 23.5 261.105 21.98 260.225 21C259.345 20 258.075 19.5 256.415 19.5C255.215 19.5 254.215 19.64 253.415 19.92C252.635 20.2 251.945 20.52 251.345 20.88C250.745 21.22 250.195 21.53 249.695 21.81C249.215 22.09 248.675 22.23 248.075 22.23C247.555 22.23 247.115 22.1 246.755 21.84C246.395 21.56 246.105 21.24 245.885 20.88L244.565 18.51ZM294.534 20.22C294.334 20.54 294.124 20.77 293.904 20.91C293.684 21.03 293.404 21.09 293.064 21.09C292.704 21.09 292.314 20.99 291.894 20.79C291.494 20.59 291.024 20.37 290.484 20.13C289.944 19.87 289.324 19.64 288.624 19.44C287.944 19.24 287.134 19.14 286.194 19.14C284.734 19.14 283.584 19.45 282.744 20.07C281.924 20.69 281.514 21.5 281.514 22.5C281.514 23.16 281.724 23.72 282.144 24.18C282.584 24.62 283.154 25.01 283.854 25.35C284.574 25.69 285.384 26 286.284 26.28C287.184 26.54 288.094 26.83 289.014 27.15C289.954 27.47 290.874 27.84 291.774 28.26C292.674 28.66 293.474 29.18 294.174 29.82C294.894 30.44 295.464 31.19 295.884 32.07C296.324 32.95 296.544 34.01 296.544 35.25C296.544 36.73 296.274 38.1 295.734 39.36C295.214 40.6 294.434 41.68 293.394 42.6C292.354 43.5 291.064 44.21 289.524 44.73C288.004 45.23 286.244 45.48 284.244 45.48C283.184 45.48 282.144 45.38 281.124 45.18C280.124 45 279.154 44.74 278.214 44.4C277.294 44.06 276.434 43.66 275.634 43.2C274.854 42.74 274.164 42.24 273.564 41.7L275.274 38.88C275.494 38.54 275.754 38.28 276.054 38.1C276.354 37.92 276.734 37.83 277.194 37.83C277.654 37.83 278.084 37.96 278.484 38.22C278.904 38.48 279.384 38.76 279.924 39.06C280.464 39.36 281.094 39.64 281.814 39.9C282.554 40.16 283.484 40.29 284.604 40.29C285.484 40.29 286.234 40.19 286.854 39.99C287.494 39.77 288.014 39.49 288.414 39.15C288.834 38.81 289.134 38.42 289.314 37.98C289.514 37.52 289.614 37.05 289.614 36.57C289.614 35.85 289.394 35.26 288.954 34.8C288.534 34.34 287.964 33.94 287.244 33.6C286.544 33.26 285.734 32.96 284.814 32.7C283.914 32.42 282.984 32.12 282.024 31.8C281.084 31.48 280.154 31.11 279.234 30.69C278.334 30.25 277.524 29.7 276.804 29.04C276.104 28.38 275.534 27.57 275.094 26.61C274.674 25.65 274.464 24.49 274.464 23.13C274.464 21.87 274.714 20.67 275.214 19.53C275.714 18.39 276.444 17.4 277.404 16.56C278.384 15.7 279.594 15.02 281.034 14.52C282.494 14 284.174 13.74 286.074 13.74C288.194 13.74 290.124 14.09 291.864 14.79C293.604 15.49 295.054 16.41 296.214 17.55L294.534 20.22ZM320.901 20.22C320.701 20.54 320.491 20.77 320.271 20.91C320.051 21.03 319.771 21.09 319.431 21.09C319.071 21.09 318.681 20.99 318.261 20.79C317.861 20.59 317.391 20.37 316.851 20.13C316.311 19.87 315.691 19.64 314.991 19.44C314.311 19.24 313.501 19.14 312.561 19.14C311.101 19.14 309.951 19.45 309.111 20.07C308.291 20.69 307.881 21.5 307.881 22.5C307.881 23.16 308.091 23.72 308.511 24.18C308.951 24.62 309.521 25.01 310.221 25.35C310.941 25.69 311.751 26 312.651 26.28C313.551 26.54 314.461 26.83 315.381 27.15C316.321 27.47 317.241 27.84 318.141 28.26C319.041 28.66 319.841 29.18 320.541 29.82C321.261 30.44 321.831 31.19 322.251 32.07C322.691 32.95 322.911 34.01 322.911 35.25C322.911 36.73 322.641 38.1 322.101 39.36C321.581 40.6 320.801 41.68 319.761 42.6C318.721 43.5 317.431 44.21 315.891 44.73C314.371 45.23 312.611 45.48 310.611 45.48C309.551 45.48 308.511 45.38 307.491 45.18C306.491 45 305.521 44.74 304.581 44.4C303.661 44.06 302.801 43.66 302.001 43.2C301.221 42.74 300.531 42.24 299.931 41.7L301.641 38.88C301.861 38.54 302.121 38.28 302.421 38.1C302.721 37.92 303.101 37.83 303.561 37.83C304.021 37.83 304.451 37.96 304.851 38.22C305.271 38.48 305.751 38.76 306.291 39.06C306.831 39.36 307.461 39.64 308.181 39.9C308.921 40.16 309.851 40.29 310.971 40.29C311.851 40.29 312.601 40.19 313.221 39.99C313.861 39.77 314.381 39.49 314.781 39.15C315.201 38.81 315.501 38.42 315.681 37.98C315.881 37.52 315.981 37.05 315.981 36.57C315.981 35.85 315.761 35.26 315.321 34.8C314.901 34.34 314.331 33.94 313.611 33.6C312.911 33.26 312.101 32.96 311.181 32.7C310.281 32.42 309.351 32.12 308.391 31.8C307.451 31.48 306.521 31.11 305.601 30.69C304.701 30.25 303.891 29.7 303.171 29.04C302.471 28.38 301.901 27.57 301.461 26.61C301.041 25.65 300.831 24.49 300.831 23.13C300.831 21.87 301.081 20.67 301.581 19.53C302.081 18.39 302.811 17.4 303.771 16.56C304.751 15.7 305.961 15.02 307.401 14.52C308.861 14 310.541 13.74 312.441 13.74C314.561 13.74 316.491 14.09 318.231 14.79C319.971 15.49 321.421 16.41 322.581 17.55L320.901 20.22Z" fill="white"/>
</svg>
